<mxfile host="app.diagrams.net" modified="2023-05-16T16:55:56.561Z" agent="Mozilla/5.0 (Windows NT 10.0; Win64; x64) AppleWebKit/537.36 (KHTML, like Gecko) Chrome/113.0.0.0 Safari/537.36" etag="v9I1ztkGdjOcEogBihUF" version="21.3.2" type="github">
  <diagram id="C5RBs43oDa-KdzZeNtuy" name="Page-1">
    <mxGraphModel dx="1221" dy="644" grid="1" gridSize="10" guides="1" tooltips="1" connect="1" arrows="1" fold="1" page="1" pageScale="1" pageWidth="827" pageHeight="1169" math="0" shadow="0">
      <root>
        <mxCell id="WIyWlLk6GJQsqaUBKTNV-0" />
        <mxCell id="WIyWlLk6GJQsqaUBKTNV-1" parent="WIyWlLk6GJQsqaUBKTNV-0" />
        <mxCell id="-3a9gN6t0giX4-iS7B0l-0" value="&lt;font style=&quot;font-size: 14px;&quot;&gt;唐山交警货车通行证管理系统&lt;/font&gt;" style="rounded=0;whiteSpace=wrap;html=1;strokeWidth=2;" vertex="1" parent="WIyWlLk6GJQsqaUBKTNV-1">
          <mxGeometry x="320" y="70" width="120" height="40" as="geometry" />
        </mxCell>
        <mxCell id="-3a9gN6t0giX4-iS7B0l-1" value="" style="endArrow=none;html=1;rounded=0;strokeWidth=2;" edge="1" parent="WIyWlLk6GJQsqaUBKTNV-1">
          <mxGeometry width="50" height="50" relative="1" as="geometry">
            <mxPoint x="380" y="180" as="sourcePoint" />
            <mxPoint x="380" y="110" as="targetPoint" />
          </mxGeometry>
        </mxCell>
        <mxCell id="-3a9gN6t0giX4-iS7B0l-3" value="&lt;div style=&quot;text-align: justify;&quot;&gt;&lt;span style=&quot;background-color: initial;&quot;&gt;用户申请审核&lt;/span&gt;&lt;/div&gt;" style="rounded=0;whiteSpace=wrap;html=1;strokeWidth=2;" vertex="1" parent="WIyWlLk6GJQsqaUBKTNV-1">
          <mxGeometry x="170" y="240" width="40" height="130" as="geometry" />
        </mxCell>
        <mxCell id="-3a9gN6t0giX4-iS7B0l-4" value="黑名单管理" style="rounded=0;whiteSpace=wrap;html=1;strokeWidth=2;" vertex="1" parent="WIyWlLk6GJQsqaUBKTNV-1">
          <mxGeometry x="490" y="240" width="40" height="130" as="geometry" />
        </mxCell>
        <mxCell id="-3a9gN6t0giX4-iS7B0l-5" value="企业认证管理" style="rounded=0;whiteSpace=wrap;html=1;strokeWidth=2;" vertex="1" parent="WIyWlLk6GJQsqaUBKTNV-1">
          <mxGeometry x="430" y="240" width="40" height="130" as="geometry" />
        </mxCell>
        <mxCell id="-3a9gN6t0giX4-iS7B0l-6" value="车辆申请审核" style="rounded=0;whiteSpace=wrap;html=1;strokeWidth=2;" vertex="1" parent="WIyWlLk6GJQsqaUBKTNV-1">
          <mxGeometry x="240" y="240" width="40" height="130" as="geometry" />
        </mxCell>
        <mxCell id="-3a9gN6t0giX4-iS7B0l-7" value="待审核申请" style="rounded=0;whiteSpace=wrap;html=1;strokeWidth=2;" vertex="1" parent="WIyWlLk6GJQsqaUBKTNV-1">
          <mxGeometry x="364" y="240" width="40" height="130" as="geometry" />
        </mxCell>
        <mxCell id="-3a9gN6t0giX4-iS7B0l-8" value="通行证申请审核" style="rounded=0;whiteSpace=wrap;html=1;strokeWidth=2;" vertex="1" parent="WIyWlLk6GJQsqaUBKTNV-1">
          <mxGeometry x="300" y="240" width="40" height="130" as="geometry" />
        </mxCell>
        <mxCell id="-3a9gN6t0giX4-iS7B0l-10" value="" style="endArrow=none;html=1;rounded=0;strokeWidth=2;" edge="1" parent="WIyWlLk6GJQsqaUBKTNV-1">
          <mxGeometry width="50" height="50" relative="1" as="geometry">
            <mxPoint x="190" y="180" as="sourcePoint" />
            <mxPoint x="350" y="180" as="targetPoint" />
            <Array as="points">
              <mxPoint x="320" y="180" />
            </Array>
          </mxGeometry>
        </mxCell>
        <mxCell id="-3a9gN6t0giX4-iS7B0l-11" value="" style="endArrow=none;html=1;rounded=0;strokeWidth=2;" edge="1" parent="WIyWlLk6GJQsqaUBKTNV-1">
          <mxGeometry width="50" height="50" relative="1" as="geometry">
            <mxPoint x="190" y="240" as="sourcePoint" />
            <mxPoint x="190" y="180" as="targetPoint" />
          </mxGeometry>
        </mxCell>
        <mxCell id="-3a9gN6t0giX4-iS7B0l-12" value="" style="endArrow=none;html=1;rounded=0;strokeWidth=2;" edge="1" parent="WIyWlLk6GJQsqaUBKTNV-1">
          <mxGeometry width="50" height="50" relative="1" as="geometry">
            <mxPoint x="510" y="180" as="sourcePoint" />
            <mxPoint x="350" y="180" as="targetPoint" />
          </mxGeometry>
        </mxCell>
        <mxCell id="-3a9gN6t0giX4-iS7B0l-13" value="" style="endArrow=none;html=1;rounded=0;strokeWidth=2;" edge="1" parent="WIyWlLk6GJQsqaUBKTNV-1">
          <mxGeometry width="50" height="50" relative="1" as="geometry">
            <mxPoint x="259.5" y="240" as="sourcePoint" />
            <mxPoint x="259.5" y="180" as="targetPoint" />
          </mxGeometry>
        </mxCell>
        <mxCell id="-3a9gN6t0giX4-iS7B0l-14" value="" style="endArrow=none;html=1;rounded=0;strokeWidth=2;" edge="1" parent="WIyWlLk6GJQsqaUBKTNV-1">
          <mxGeometry width="50" height="50" relative="1" as="geometry">
            <mxPoint x="319.5" y="240" as="sourcePoint" />
            <mxPoint x="319.5" y="180" as="targetPoint" />
          </mxGeometry>
        </mxCell>
        <mxCell id="-3a9gN6t0giX4-iS7B0l-15" value="" style="endArrow=none;html=1;rounded=0;strokeWidth=2;" edge="1" parent="WIyWlLk6GJQsqaUBKTNV-1">
          <mxGeometry width="50" height="50" relative="1" as="geometry">
            <mxPoint x="383" y="240" as="sourcePoint" />
            <mxPoint x="383" y="180" as="targetPoint" />
          </mxGeometry>
        </mxCell>
        <mxCell id="-3a9gN6t0giX4-iS7B0l-16" value="" style="endArrow=none;html=1;rounded=0;strokeWidth=2;" edge="1" parent="WIyWlLk6GJQsqaUBKTNV-1">
          <mxGeometry width="50" height="50" relative="1" as="geometry">
            <mxPoint x="450" y="240" as="sourcePoint" />
            <mxPoint x="450" y="180" as="targetPoint" />
          </mxGeometry>
        </mxCell>
        <mxCell id="-3a9gN6t0giX4-iS7B0l-17" value="" style="endArrow=none;html=1;rounded=0;strokeWidth=2;" edge="1" parent="WIyWlLk6GJQsqaUBKTNV-1">
          <mxGeometry width="50" height="50" relative="1" as="geometry">
            <mxPoint x="509.5" y="240" as="sourcePoint" />
            <mxPoint x="509.5" y="180" as="targetPoint" />
          </mxGeometry>
        </mxCell>
        <mxCell id="-3a9gN6t0giX4-iS7B0l-18" value="审核报表" style="rounded=0;whiteSpace=wrap;html=1;strokeWidth=2;" vertex="1" parent="WIyWlLk6GJQsqaUBKTNV-1">
          <mxGeometry x="550" y="240" width="40" height="130" as="geometry" />
        </mxCell>
        <mxCell id="-3a9gN6t0giX4-iS7B0l-19" value="" style="endArrow=none;html=1;rounded=0;strokeWidth=2;" edge="1" parent="WIyWlLk6GJQsqaUBKTNV-1">
          <mxGeometry width="50" height="50" relative="1" as="geometry">
            <mxPoint x="510" y="180" as="sourcePoint" />
            <mxPoint x="570" y="180" as="targetPoint" />
          </mxGeometry>
        </mxCell>
        <mxCell id="-3a9gN6t0giX4-iS7B0l-20" value="" style="endArrow=none;html=1;rounded=0;strokeWidth=2;exitX=0.5;exitY=0;exitDx=0;exitDy=0;exitPerimeter=0;" edge="1" parent="WIyWlLk6GJQsqaUBKTNV-1" source="-3a9gN6t0giX4-iS7B0l-18">
          <mxGeometry width="50" height="50" relative="1" as="geometry">
            <mxPoint x="570" y="230" as="sourcePoint" />
            <mxPoint x="570" y="180" as="targetPoint" />
          </mxGeometry>
        </mxCell>
      </root>
    </mxGraphModel>
  </diagram>
</mxfile>
